<svg width="43" height="35" viewBox="0 0 43 35" fill="none" xmlns="http://www.w3.org/2000/svg">
<path d="M40.5024 9.21289C41.1226 9.21289 41.6145 9.72619 41.6145 10.3678V32.2257C41.6145 32.8673 41.1226 33.3806 40.5024 33.3806H2.11214C1.49191 33.3806 1 32.8673 1 32.2257V10.3678C1 9.72619 1.49191 9.21289 2.11214 9.21289H40.5024Z" fill="#DFE7F2" stroke="#334F78" stroke-width="2" stroke-miterlimit="10" stroke-linecap="round" stroke-linejoin="round"/>
<path d="M21.318 28.996C25.4521 28.996 28.8035 25.5489 28.8035 21.2966C28.8035 17.0443 25.4521 13.5972 21.318 13.5972C17.1838 13.5972 13.8324 17.0443 13.8324 21.2966C13.8324 25.5489 17.1838 28.996 21.318 28.996Z" fill="#DFE7F2" stroke="#334F78" stroke-width="2" stroke-miterlimit="10" stroke-linecap="round" stroke-linejoin="round"/>
<path d="M36.3585 14.816C36.3585 15.4449 35.8486 15.9547 35.2197 15.9547C34.5908 15.9547 34.081 15.4449 34.081 14.816C34.081 14.1871 34.5908 13.6772 35.2197 13.6772C35.8486 13.6772 36.3585 14.1871 36.3585 14.816Z" fill="#DFE7F2" stroke="#334F78" stroke-width="2"/>
<path d="M14.9018 4.93527V2.09076C14.9018 1.49191 15.3723 1 15.9712 1H26.6648C27.2637 1 27.7342 1.49191 27.7342 2.09076V4.93527" fill="#DFE7F2"/>
<path d="M14.9018 4.93527V2.09076C14.9018 1.49191 15.3723 1 15.9712 1H26.6648C27.2637 1 27.7342 1.49191 27.7342 2.09076V4.93527" stroke="#334F78" stroke-width="2" stroke-miterlimit="10" stroke-linecap="round" stroke-linejoin="round"/>
</svg>
