<svg width="43" height="28" viewBox="0 0 43 28" fill="none" xmlns="http://www.w3.org/2000/svg">
<path d="M40.5665 26.6648H2.06937C1.47052 26.6648 1 26.1943 1 25.5954V2.06937C1 1.47052 1.47052 1 2.06937 1H40.5665C41.1654 1 41.6359 1.47052 41.6359 2.06937V25.5954C41.6359 26.1943 41.1654 26.6648 40.5665 26.6648Z" fill="#DFE7F2" stroke="#334F78" stroke-width="2" stroke-miterlimit="10" stroke-linecap="round" stroke-linejoin="round"/>
<path d="M5.27747 22.3872L16.3133 8.48548C16.7411 7.9508 17.5538 7.9508 17.9815 8.48548L29.0174 22.3872" fill="#DFE7F2"/>
<path d="M5.27747 22.3872L16.3133 8.48548C16.7411 7.9508 17.5538 7.9508 17.9815 8.48548L29.0174 22.3872" stroke="#334F78" stroke-width="2" stroke-miterlimit="10" stroke-linecap="round" stroke-linejoin="round"/>
<path d="M30.3007 17.062L30.8567 16.2706C31.2845 15.736 32.0972 15.736 32.5249 16.2706L37.3584 22.3874" fill="#DFE7F2"/>
<path d="M30.3007 17.062L30.8567 16.2706C31.2845 15.736 32.0972 15.736 32.5249 16.2706L37.3585 22.3874" stroke="#334F78" stroke-width="2" stroke-miterlimit="10" stroke-linecap="round" stroke-linejoin="round"/>
<path d="M28.4238 9.19147C28.4238 9.82037 27.9139 10.3302 27.285 10.3302C26.6561 10.3302 26.1463 9.82037 26.1463 9.19147C26.1463 8.56256 26.6561 8.05273 27.285 8.05273C27.9139 8.05273 28.4238 8.56256 28.4238 9.19147Z" fill="#DFE7F2" stroke="#334F78" stroke-width="2"/>
</svg>
