<svg width="43" height="39" viewBox="0 0 43 39" fill="none" xmlns="http://www.w3.org/2000/svg">
<path d="M14.8603 17.7676C14.8386 17.7676 14.8386 17.7676 14.8169 17.7893L14.8603 17.7676Z" fill="#DFE7F2"/>
<path d="M14.8603 17.7676C14.8386 17.7676 14.8386 17.7676 14.8169 17.7893" stroke="#334F78" stroke-width="2" stroke-miterlimit="10" stroke-linecap="round" stroke-linejoin="round"/>
<path d="M31.9481 19.7139C37.4874 23.0931 41.2516 29.0601 41.6366 35.9255C41.658 36.5457 41.1661 37.059 40.5458 37.059H2.09143C1.4712 37.059 0.979285 36.5457 1.00067 35.9255C1.38564 29.1029 5.12842 23.1572 10.6036 19.778" fill="#DFE7F2"/>
<path d="M31.9481 19.7139C37.4874 23.0931 41.2516 29.0601 41.6366 35.9255C41.658 36.5457 41.1661 37.059 40.5458 37.059H2.09143C1.4712 37.059 0.979285 36.5457 1.00067 35.9255C1.38564 29.1029 5.12842 23.1572 10.6036 19.778" stroke="#334F78" stroke-width="2" stroke-miterlimit="10" stroke-linecap="round" stroke-linejoin="round"/>
<path d="M21.3186 20.2914C26.6457 20.2914 30.9643 15.9728 30.9643 10.6457C30.9643 5.31852 26.6457 1 21.3186 1C15.9914 1 11.6729 5.31852 11.6729 10.6457C11.6729 15.9728 15.9914 20.2914 21.3186 20.2914Z" fill="#DFE7F2" stroke="#334F78" stroke-width="2" stroke-miterlimit="10" stroke-linecap="round" stroke-linejoin="round"/>
</svg>
